<svg class="c6urr c3qv0 culew" viewBox="0 0 20 20" xmlns="http://www.w3.org/2000/svg">
  <path d="M19.96 2.336a.421.421 0 0 0-.291-.308 1.543 1.543 0 0 0-.788.054S1.358 8.194.358 8.87c-.215.145-.288.23-.324.33-.173.485.366.694.366.694l4.517 1.428a.506.506 0 0 0 .229-.013c1.026-.63 10.332-6.335 10.873-6.527.083-.024.148 0 .131.061-.215.732-8.257 7.664-8.301 7.706a.16.16 0 0 0-.06.143l-.422 4.28s-.176 1.331 1.196 0a38.082 38.082 0 0 1 2.374-2.11c1.553 1.041 3.224 2.192 3.945 2.794.245.23.576.354.916.342.426-.05.774-.35.876-.754 0 0 3.192-12.471 3.298-14.142.011-.162.025-.268.027-.38.005-.13-.008-.26-.04-.387Z"></path>
</svg>